<?xml version="1.0" encoding="UTF-8" standalone="no"?>
<!-- Created with Inkscape (http://www.inkscape.org/) -->

<svg
   version="1.1"
   id="svg1"
   width="256"
   height="256"
   viewBox="0 0 256 256"
   xml:space="preserve"
   xmlns="http://www.w3.org/2000/svg"
   xmlns:svg="http://www.w3.org/2000/svg"><defs
     id="defs1" /><g
     id="g1"><path
       style="fill:#ffffff;fill-opacity:1;stroke:none;stroke-width:7;stroke-linejoin:round"
       d="M 125.10452,0.04338094 14.463024,62.860548 14.771334,192.43128 125.12728,256.01753 235.81538,192.51109 235.9331,62.763802 Z"
       id="path1" /><path
       style="fill:#000000;stroke:#ffffff;stroke-width:0.134708"
       d="m 19.071993,14.195317 h 21.251501 v 2.639371 h -2.457355 v 4.550642 h 2.411837 V 43.956513 H 18.753442 V 21.157798 h 2.639377 v -4.232097 h -2.639377 v -2.730384 z"
       id="path9-2"
       transform="matrix(4.2666667,0,0,4.2666667,-1.0535576,-1.0945956)" /><path
       style="fill:#ffffff;stroke:#000000;stroke-width:0.108168"
       d="m 18.181515,93.03062 c 0.68902,1.149802 2.06706,3.449406 2.747466,5.279628 0.680407,1.830222 0.663181,3.191012 0.232532,4.271922 -0.430648,1.08091 -1.27468,1.88188 -1.959397,2.29098 -0.684717,0.40911 -1.210086,0.42635 -1.774226,0.42205 -0.56414,-0.004 -1.167023,-0.0301 -1.830212,-0.45647 -0.663188,-0.42634 -1.386641,-1.25314 -1.744071,-2.38143 -0.357431,-1.12828 -0.348817,-2.557972 0.279926,-4.323607 0.628744,-1.765634 1.877567,-3.867103 2.54075,-4.96523 0.663183,-1.098127 0.740696,-1.192865 0.779453,-1.240235 0.03876,-0.04737 0.03876,-0.04741 0.727779,1.102392 z"
       id="path8-4"
       transform="matrix(5.3135313,0,0,5.3135313,32.094313,-388.09895)" /></g></svg>
