<?xml version="1.0" encoding="UTF-8"?>
<!DOCTYPE svg PUBLIC "-//W3C//DTD SVG 1.1//EN" "http://www.w3.org/Graphics/SVG/1.1/DTD/svg11.dtd">
<svg xmlns="http://www.w3.org/2000/svg" version="1.1" width="112px" height="112px" style="shape-rendering:geometricPrecision; text-rendering:geometricPrecision; image-rendering:optimizeQuality; fill-rule:evenodd; clip-rule:evenodd" xmlns:xlink="http://www.w3.org/1999/xlink">
<g><path style="opacity:0.812" fill="#b6fcfd" d="M 95.5,1.5 C 96.9473,0.114844 97.9473,0.448177 98.5,2.5C 97.609,1.89022 96.609,1.55688 95.5,1.5 Z"/></g>
<g><path style="opacity:1" fill="#91fbfd" d="M 95.5,1.5 C 96.609,1.55688 97.609,1.89022 98.5,2.5C 100.491,8.13833 102.491,13.805 104.5,19.5C 100.634,23.0846 96.9678,23.0846 93.5,19.5C 84.0812,22.6393 74.7479,25.9726 65.5,29.5C 67.4138,33.3228 68.7471,37.3228 69.5,41.5C 58.8333,41.5 48.1667,41.5 37.5,41.5C 37.5,33.5 37.5,25.5 37.5,17.5C 44.8409,17.6663 52.1742,17.4997 59.5,17C 69.3951,14.035 79.2285,10.8683 89,7.5C 90.0299,7.16389 90.5299,6.49722 90.5,5.5C 90.5569,4.39105 90.8902,3.39105 91.5,2.5C 92.7079,1.76589 94.0413,1.43255 95.5,1.5 Z"/></g>
<g><path style="opacity:0.816" fill="#b7fcfd" d="M 91.5,2.5 C 90.8902,3.39105 90.5569,4.39105 90.5,5.5C 89.1148,4.0527 89.4482,3.0527 91.5,2.5 Z"/></g>
<g><path style="opacity:1" fill="#8ffbfd" d="M 16.5,49.5 C 41.1689,49.3334 65.8356,49.5 90.5,50C 95.5,55 100.5,60 105.5,65C 70.8333,65.6667 36.1667,65.6667 1.5,65C 6.70311,59.9646 11.7031,54.798 16.5,49.5 Z"/></g>
<g><path style="opacity:1" fill="#8ffbfd" d="M 1.5,73.5 C 36.1667,73.5 70.8333,73.5 105.5,73.5C 105.5,85.5 105.5,97.5 105.5,109.5C 70.8333,109.5 36.1667,109.5 1.5,109.5C 1.5,97.5 1.5,85.5 1.5,73.5 Z"/></g>
</svg>
