<?xml version="1.0" encoding="UTF-8" standalone="no"?>
<!-- Created with Inkscape (http://www.inkscape.org/) -->

<svg
   version="1.1"
   id="svg1"
   width="256"
   height="256"
   viewBox="0 0 256 256"
   xml:space="preserve"
   xmlns="http://www.w3.org/2000/svg"
   xmlns:svg="http://www.w3.org/2000/svg"><defs
     id="defs1" /><g
     id="g1"><path
       style="fill:#ffffff;fill-opacity:1;stroke-width:1.57349"
       d="M 14.771334,192.43128 14.463024,62.860548 125.10452,0.04338094 235.9331,62.763802 235.81538,192.51109 125.12728,256.01753 Z"
       id="path48-0"
       transform="translate(-1.1124493e-5)" /><path
       style="fill:#000000;stroke:#000000;stroke-width:1px;stroke-linecap:butt;stroke-linejoin:miter;stroke-opacity:1"
       d="m -698.93086,71.329396 h 13.05938 l 6.0325,15.037068 h -26.04141 z"
       id="path39"
       transform="matrix(3.5470513,0,0,3.5470513,2581.7731,-101.63505)" /><path
       style="fill:#000000;stroke:#000000;stroke-width:1px;stroke-linecap:butt;stroke-linejoin:miter;stroke-opacity:1"
       d="m -691.7935,58.18163 4.04377,9.126097 h -9.17029 l 4.02167,-9.126097 v -6.783806 h -4.04377 v -2.032932 h 9.0819 v 2.099223 h -3.93328 z"
       id="path40"
       transform="matrix(3.5470513,0,0,3.5470513,2581.7731,-101.63505)" /><path
       style="fill:#000000;stroke:#000000;stroke-width:1px;stroke-linecap:butt;stroke-linejoin:miter;stroke-opacity:1"
       d="m -685.95987,45.321125 h 6.12089 l 4.02167,11.048544 h -6.12089 z"
       id="path41"
       transform="matrix(3.5470513,0,0,3.5470513,2581.7731,-101.63505)" /><path
       style="fill:#000000;stroke:#000000;stroke-width:1px;stroke-linecap:butt;stroke-linejoin:miter;stroke-opacity:1"
       d="m -698.58886,45.290728 h -6.12089 l -4.02167,11.048544 h 6.12089 z"
       id="path41-4"
       transform="matrix(3.5470513,0,0,3.5470513,2581.7731,-101.63505)" /></g></svg>
