<?xml version="1.0" encoding="UTF-8"?>
<!DOCTYPE svg PUBLIC "-//W3C//DTD SVG 1.1//EN" "http://www.w3.org/Graphics/SVG/1.1/DTD/svg11.dtd">
<svg xmlns="http://www.w3.org/2000/svg" version="1.1" width="256px" height="256px" style="shape-rendering:geometricPrecision; text-rendering:geometricPrecision; image-rendering:optimizeQuality; fill-rule:evenodd; clip-rule:evenodd" xmlns:xlink="http://www.w3.org/1999/xlink">
<g><path style="opacity:0.235" fill="#c2fcfd" d="M 92.5,3.5 C 91.5,3.5 90.5,3.5 89.5,3.5C 90.5,0.833333 91.5,0.833333 92.5,3.5 Z"/></g>
<g><path style="opacity:0.235" fill="#c2fcfd" d="M 165.5,3.5 C 164.5,3.5 163.5,3.5 162.5,3.5C 163.5,0.833333 164.5,0.833333 165.5,3.5 Z"/></g>
<g><path style="opacity:0.922" fill="#a7fbfd" d="M 89.5,3.5 C 90.5,3.5 91.5,3.5 92.5,3.5C 92.5,4.5 92.5,5.5 92.5,6.5C 91.5,6.5 90.5,6.5 89.5,6.5C 89.5,5.5 89.5,4.5 89.5,3.5 Z"/></g>
<g><path style="opacity:0.922" fill="#a7fbfd" d="M 162.5,3.5 C 163.5,3.5 164.5,3.5 165.5,3.5C 165.5,4.5 165.5,5.5 165.5,6.5C 164.5,6.5 163.5,6.5 162.5,6.5C 162.5,5.5 162.5,4.5 162.5,3.5 Z"/></g>
<g><path style="opacity:0.486" fill="#bcfcfd" d="M 89.5,6.5 C 89.5,7.83333 88.8333,8.5 87.5,8.5C 87.5,7.16667 88.1667,6.5 89.5,6.5 Z"/></g>
<g><path style="opacity:1" fill="#8ffbfd" d="M 89.5,6.5 C 90.5,6.5 91.5,6.5 92.5,6.5C 92.5,30.5 92.5,54.5 92.5,78.5C 91.5,78.5 90.5,78.5 89.5,78.5C 89.5,79.5 89.5,80.5 89.5,81.5C 88.1667,81.5 87.5,82.1667 87.5,83.5C 86.1667,83.5 85.5,84.1667 85.5,85.5C 85.5,86.1667 85.5,86.8333 85.5,87.5C 84.1667,87.5 83.5,88.1667 83.5,89.5C 81.9519,89.8212 81.2852,90.8212 81.5,92.5C 81.5,93.1667 81.5,93.8333 81.5,94.5C 79.8212,94.2852 78.8212,94.9519 78.5,96.5C 78.5,97.1667 78.5,97.8333 78.5,98.5C 76.744,99.5521 76.0773,101.219 76.5,103.5C 76.5,104.167 76.5,104.833 76.5,105.5C 75.1778,108.768 74.5112,112.435 74.5,116.5C 74.5112,120.565 75.1778,124.232 76.5,127.5C 76.5,128.833 76.5,130.167 76.5,131.5C 76.0773,133.781 76.744,135.448 78.5,136.5C 78.5,137.167 78.5,137.833 78.5,138.5C 78.5,139.833 78.5,141.167 78.5,142.5C 79.5,142.5 80.5,142.5 81.5,142.5C 81.2852,144.179 81.9519,145.179 83.5,145.5C 84.1667,146.833 84.8333,148.167 85.5,149.5C 85.5,150.833 86.1667,151.5 87.5,151.5C 87.5,152.833 88.1667,153.5 89.5,153.5C 89.5,154.5 89.5,155.5 89.5,156.5C 90.5,156.5 91.5,156.5 92.5,156.5C 92.5,188.167 92.5,219.833 92.5,251.5C 68.8333,251.5 45.1667,251.5 21.5,251.5C 21.5,206.5 21.5,161.5 21.5,116.5C 22.8333,116.5 23.5,115.833 23.5,114.5C 24.8333,114.5 25.5,113.833 25.5,112.5C 25.5,111.5 25.5,110.5 25.5,109.5C 27.1788,109.715 28.1788,109.048 28.5,107.5C 28.5,106.833 28.5,106.167 28.5,105.5C 29.8333,105.5 30.5,104.833 30.5,103.5C 31.8333,103.5 32.5,102.833 32.5,101.5C 32.5,100.5 32.5,99.5 32.5,98.5C 33.8333,98.5 34.5,97.8333 34.5,96.5C 34.5,95.8333 34.5,95.1667 34.5,94.5C 36.1788,94.7148 37.1788,94.0481 37.5,92.5C 39.0481,92.1788 39.7148,91.1788 39.5,89.5C 39.5,88.8333 39.5,88.1667 39.5,87.5C 40.8333,87.5 41.5,86.8333 41.5,85.5C 42.8333,85.5 43.5,84.8333 43.5,83.5C 43.5,82.8333 43.5,82.1667 43.5,81.5C 45.0481,81.1788 45.7148,80.1788 45.5,78.5C 45.5,77.8333 45.5,77.1667 45.5,76.5C 47.1788,76.7148 48.1788,76.0481 48.5,74.5C 49.8333,74.5 50.5,73.8333 50.5,72.5C 50.5,71.8333 50.5,71.1667 50.5,70.5C 52.0481,70.1788 52.7148,69.1788 52.5,67.5C 52.5,66.8333 52.5,66.1667 52.5,65.5C 53.8333,65.5 54.5,64.8333 54.5,63.5C 55.8333,63.5 56.5,62.8333 56.5,61.5C 56.5,60.8333 56.5,60.1667 56.5,59.5C 57.5,59.5 58.5,59.5 59.5,59.5C 59.5,58.5 59.5,57.5 59.5,56.5C 59.5,55.8333 59.5,55.1667 59.5,54.5C 60.8333,54.5 61.5,53.8333 61.5,52.5C 62.8333,52.5 63.5,51.8333 63.5,50.5C 63.5,49.8333 63.5,49.1667 63.5,48.5C 65.0481,48.1788 65.7148,47.1788 65.5,45.5C 65.5,44.8333 65.5,44.1667 65.5,43.5C 66.8333,43.5 67.5,42.8333 67.5,41.5C 69.1788,41.7148 70.1788,41.0481 70.5,39.5C 70.5,38.8333 70.5,38.1667 70.5,37.5C 72.0481,37.1788 72.7148,36.1788 72.5,34.5C 73.8333,34.5 74.5,33.8333 74.5,32.5C 74.5,31.8333 74.5,31.1667 74.5,30.5C 75.8333,30.5 76.5,29.8333 76.5,28.5C 76.5,27.5 76.5,26.5 76.5,25.5C 77.8333,25.5 78.5,24.8333 78.5,23.5C 80.1788,23.7148 81.1788,23.0481 81.5,21.5C 81.5,20.8333 81.5,20.1667 81.5,19.5C 82.8333,19.5 83.5,18.8333 83.5,17.5C 83.5,16.5 83.5,15.5 83.5,14.5C 84.8333,14.5 85.5,13.8333 85.5,12.5C 86.8333,12.5 87.5,11.8333 87.5,10.5C 87.5,9.83333 87.5,9.16667 87.5,8.5C 88.8333,8.5 89.5,7.83333 89.5,6.5 Z"/></g>
<g><path style="opacity:1" fill="#8ffbfd" d="M 162.5,6.5 C 163.5,6.5 164.5,6.5 165.5,6.5C 165.5,7.83333 166.167,8.5 167.5,8.5C 167.5,9.16667 167.5,9.83333 167.5,10.5C 167.5,11.8333 168.167,12.5 169.5,12.5C 169.5,13.8333 170.167,14.5 171.5,14.5C 171.5,15.5 171.5,16.5 171.5,17.5C 171.5,18.8333 172.167,19.5 173.5,19.5C 173.5,20.1667 173.5,20.8333 173.5,21.5C 173.821,23.0481 174.821,23.7148 176.5,23.5C 176.5,24.8333 177.167,25.5 178.5,25.5C 178.5,26.5 178.5,27.5 178.5,28.5C 178.5,29.8333 179.167,30.5 180.5,30.5C 180.5,31.1667 180.5,31.8333 180.5,32.5C 180.5,33.8333 181.167,34.5 182.5,34.5C 182.285,36.1788 182.952,37.1788 184.5,37.5C 184.5,38.1667 184.5,38.8333 184.5,39.5C 184.821,41.0481 185.821,41.7148 187.5,41.5C 187.5,42.8333 188.167,43.5 189.5,43.5C 189.5,44.1667 189.5,44.8333 189.5,45.5C 189.285,47.1788 189.952,48.1788 191.5,48.5C 191.5,49.1667 191.5,49.8333 191.5,50.5C 191.5,51.8333 192.167,52.5 193.5,52.5C 193.5,53.8333 194.167,54.5 195.5,54.5C 195.5,55.1667 195.5,55.8333 195.5,56.5C 195.5,57.5 195.5,58.5 195.5,59.5C 196.5,59.5 197.5,59.5 198.5,59.5C 198.5,60.1667 198.5,60.8333 198.5,61.5C 198.5,62.8333 199.167,63.5 200.5,63.5C 200.5,64.8333 201.167,65.5 202.5,65.5C 202.5,66.1667 202.5,66.8333 202.5,67.5C 202.285,69.1788 202.952,70.1788 204.5,70.5C 204.5,71.1667 204.5,71.8333 204.5,72.5C 204.5,73.8333 205.167,74.5 206.5,74.5C 206.821,76.0481 207.821,76.7148 209.5,76.5C 209.5,77.1667 209.5,77.8333 209.5,78.5C 209.285,80.1788 209.952,81.1788 211.5,81.5C 211.5,82.1667 211.5,82.8333 211.5,83.5C 211.5,84.8333 212.167,85.5 213.5,85.5C 213.5,86.8333 214.167,87.5 215.5,87.5C 215.5,88.1667 215.5,88.8333 215.5,89.5C 215.285,91.1788 215.952,92.1788 217.5,92.5C 217.821,94.0481 218.821,94.7148 220.5,94.5C 220.5,95.1667 220.5,95.8333 220.5,96.5C 220.5,97.8333 221.167,98.5 222.5,98.5C 222.5,99.5 222.5,100.5 222.5,101.5C 222.5,102.833 223.167,103.5 224.5,103.5C 224.5,104.833 225.167,105.5 226.5,105.5C 226.5,106.167 226.5,106.833 226.5,107.5C 226.821,109.048 227.821,109.715 229.5,109.5C 229.5,110.5 229.5,111.5 229.5,112.5C 229.5,113.833 230.167,114.5 231.5,114.5C 231.5,115.833 232.167,116.5 233.5,116.5C 233.5,161.5 233.5,206.5 233.5,251.5C 209.833,251.5 186.167,251.5 162.5,251.5C 162.5,219.833 162.5,188.167 162.5,156.5C 163.5,156.5 164.5,156.5 165.5,156.5C 165.5,155.5 165.5,154.5 165.5,153.5C 166.833,153.5 167.5,152.833 167.5,151.5C 168.833,151.5 169.5,150.833 169.5,149.5C 170.167,148.167 170.833,146.833 171.5,145.5C 173.048,145.179 173.715,144.179 173.5,142.5C 174.5,142.5 175.5,142.5 176.5,142.5C 176.5,141.167 176.5,139.833 176.5,138.5C 176.5,137.833 176.5,137.167 176.5,136.5C 178.256,135.448 178.923,133.781 178.5,131.5C 178.5,130.167 178.5,128.833 178.5,127.5C 179.822,124.232 180.489,120.565 180.5,116.5C 180.489,112.435 179.822,108.768 178.5,105.5C 178.5,104.833 178.5,104.167 178.5,103.5C 178.923,101.219 178.256,99.5521 176.5,98.5C 176.5,97.8333 176.5,97.1667 176.5,96.5C 176.179,94.9519 175.179,94.2852 173.5,94.5C 173.5,93.8333 173.5,93.1667 173.5,92.5C 173.715,90.8212 173.048,89.8212 171.5,89.5C 171.5,88.1667 170.833,87.5 169.5,87.5C 169.5,86.8333 169.5,86.1667 169.5,85.5C 169.5,84.1667 168.833,83.5 167.5,83.5C 167.5,82.1667 166.833,81.5 165.5,81.5C 165.5,80.5 165.5,79.5 165.5,78.5C 164.5,78.5 163.5,78.5 162.5,78.5C 162.5,54.5 162.5,30.5 162.5,6.5 Z"/></g>
<g><path style="opacity:0.486" fill="#bcfcfd" d="M 165.5,6.5 C 166.833,6.5 167.5,7.16667 167.5,8.5C 167.5,7.16667 166.833,6.5 165.5,6.5 Z"/></g>
<g><path style="opacity:0.812" fill="#b1fcfd" d="M 87.5,10.5 C 87.5,11.8333 86.8333,12.5 85.5,12.5C 85.5,11.1667 86.1667,10.5 87.5,10.5 Z"/></g>
<g><path style="opacity:0.812" fill="#b1fcfd" d="M 167.5,10.5 C 168.833,10.5 169.5,11.1667 169.5,12.5C 169.5,11.1667 168.833,10.5 167.5,10.5 Z"/></g>
<g><path style="opacity:0.341" fill="#c0fcfd" d="M 85.5,12.5 C 85.5,13.8333 84.8333,14.5 83.5,14.5C 83.5,13.1667 84.1667,12.5 85.5,12.5 Z"/></g>
<g><path style="opacity:0.341" fill="#c0fcfd" d="M 169.5,12.5 C 170.833,12.5 171.5,13.1667 171.5,14.5C 171.5,13.1667 170.833,12.5 169.5,12.5 Z"/></g>
<g><path style="opacity:0.655" fill="#b8fcfd" d="M 83.5,17.5 C 83.5,18.8333 82.8333,19.5 81.5,19.5C 81.5,18.1667 82.1667,17.5 83.5,17.5 Z"/></g>
<g><path style="opacity:0.655" fill="#b8fcfd" d="M 171.5,17.5 C 172.833,17.5 173.5,18.1667 173.5,19.5C 173.5,18.1667 172.833,17.5 171.5,17.5 Z"/></g>
<g><path style="opacity:0.812" fill="#b1fcfd" d="M 81.5,21.5 C 81.1788,23.0481 80.1788,23.7148 78.5,23.5C 78.8212,21.9519 79.8212,21.2852 81.5,21.5 Z"/></g>
<g><path style="opacity:0.812" fill="#b1fcfd" d="M 173.5,21.5 C 175.179,21.2852 176.179,21.9519 176.5,23.5C 174.821,23.7148 173.821,23.0481 173.5,21.5 Z"/></g>
<g><path style="opacity:0.486" fill="#bcfcfd" d="M 78.5,23.5 C 78.5,24.8333 77.8333,25.5 76.5,25.5C 76.5,24.1667 77.1667,23.5 78.5,23.5 Z"/></g>
<g><path style="opacity:0.486" fill="#bcfcfd" d="M 176.5,23.5 C 177.833,23.5 178.5,24.1667 178.5,25.5C 178.5,24.1667 177.833,23.5 176.5,23.5 Z"/></g>
<g><path style="opacity:0.682" fill="#b7fcfd" d="M 76.5,28.5 C 76.5,29.8333 75.8333,30.5 74.5,30.5C 74.5,29.1667 75.1667,28.5 76.5,28.5 Z"/></g>
<g><path style="opacity:0.682" fill="#b7fcfd" d="M 178.5,28.5 C 179.833,28.5 180.5,29.1667 180.5,30.5C 180.5,29.1667 179.833,28.5 178.5,28.5 Z"/></g>
<g><path style="opacity:0.812" fill="#b1fcfd" d="M 74.5,32.5 C 74.5,33.8333 73.8333,34.5 72.5,34.5C 72.5,33.1667 73.1667,32.5 74.5,32.5 Z"/></g>
<g><path style="opacity:0.812" fill="#b1fcfd" d="M 180.5,32.5 C 181.833,32.5 182.5,33.1667 182.5,34.5C 182.5,33.1667 181.833,32.5 180.5,32.5 Z"/></g>
<g><path style="opacity:0.486" fill="#bcfcfd" d="M 72.5,34.5 C 72.7148,36.1788 72.0481,37.1788 70.5,37.5C 70.2852,35.8212 70.9519,34.8212 72.5,34.5 Z"/></g>
<g><path style="opacity:0.486" fill="#bcfcfd" d="M 182.5,34.5 C 184.048,34.8212 184.715,35.8212 184.5,37.5C 182.952,37.1788 182.285,36.1788 182.5,34.5 Z"/></g>
<g><path style="opacity:0.812" fill="#b1fcfd" d="M 70.5,39.5 C 70.1788,41.0481 69.1788,41.7148 67.5,41.5C 67.8212,39.9519 68.8212,39.2852 70.5,39.5 Z"/></g>
<g><path style="opacity:0.812" fill="#b1fcfd" d="M 184.5,39.5 C 186.179,39.2852 187.179,39.9519 187.5,41.5C 185.821,41.7148 184.821,41.0481 184.5,39.5 Z"/></g>
<g><path style="opacity:0.263" fill="#c1fcfd" d="M 67.5,41.5 C 67.5,42.8333 66.8333,43.5 65.5,43.5C 65.5,42.1667 66.1667,41.5 67.5,41.5 Z"/></g>
<g><path style="opacity:0.263" fill="#c1fcfd" d="M 187.5,41.5 C 188.833,41.5 189.5,42.1667 189.5,43.5C 189.5,42.1667 188.833,41.5 187.5,41.5 Z"/></g>
<g><path style="opacity:0.439" fill="#befcfd" d="M 65.5,45.5 C 65.7148,47.1788 65.0481,48.1788 63.5,48.5C 63.2852,46.8212 63.9519,45.8212 65.5,45.5 Z"/></g>
<g><path style="opacity:0.439" fill="#befcfd" d="M 189.5,45.5 C 191.048,45.8212 191.715,46.8212 191.5,48.5C 189.952,48.1788 189.285,47.1788 189.5,45.5 Z"/></g>
<g><path style="opacity:0.812" fill="#b1fcfd" d="M 63.5,50.5 C 63.5,51.8333 62.8333,52.5 61.5,52.5C 61.5,51.1667 62.1667,50.5 63.5,50.5 Z"/></g>
<g><path style="opacity:0.812" fill="#b1fcfd" d="M 191.5,50.5 C 192.833,50.5 193.5,51.1667 193.5,52.5C 193.5,51.1667 192.833,50.5 191.5,50.5 Z"/></g>
<g><path style="opacity:0.263" fill="#c1fcfd" d="M 61.5,52.5 C 61.5,53.8333 60.8333,54.5 59.5,54.5C 59.5,53.1667 60.1667,52.5 61.5,52.5 Z"/></g>
<g><path style="opacity:0.263" fill="#c1fcfd" d="M 193.5,52.5 C 194.833,52.5 195.5,53.1667 195.5,54.5C 195.5,53.1667 194.833,52.5 193.5,52.5 Z"/></g>
<g><path style="opacity:0.529" fill="#bbfcfd" d="M 59.5,56.5 C 59.5,57.5 59.5,58.5 59.5,59.5C 58.5,59.5 57.5,59.5 56.5,59.5C 56.5,58.5 56.5,57.5 56.5,56.5C 57.5,56.5 58.5,56.5 59.5,56.5 Z"/></g>
<g><path style="opacity:0.529" fill="#bbfcfd" d="M 195.5,56.5 C 196.5,56.5 197.5,56.5 198.5,56.5C 198.5,57.5 198.5,58.5 198.5,59.5C 198.5,58.5 198.5,57.5 198.5,56.5C 197.5,56.5 196.5,56.5 195.5,56.5 Z"/></g>
<g><path style="opacity:0.812" fill="#b1fcfd" d="M 56.5,61.5 C 56.5,62.8333 55.8333,63.5 54.5,63.5C 54.5,62.1667 55.1667,61.5 56.5,61.5 Z"/></g>
<g><path style="opacity:0.812" fill="#b1fcfd" d="M 198.5,61.5 C 199.833,61.5 200.5,62.1667 200.5,63.5C 200.5,62.1667 199.833,61.5 198.5,61.5 Z"/></g>
<g><path style="opacity:0.263" fill="#c1fcfd" d="M 54.5,63.5 C 54.5,64.8333 53.8333,65.5 52.5,65.5C 52.5,64.1667 53.1667,63.5 54.5,63.5 Z"/></g>
<g><path style="opacity:0.263" fill="#c1fcfd" d="M 200.5,63.5 C 201.833,63.5 202.5,64.1667 202.5,65.5C 202.5,64.1667 201.833,63.5 200.5,63.5 Z"/></g>
<g><path style="opacity:0.682" fill="#b7fcfd" d="M 52.5,67.5 C 52.7148,69.1788 52.0481,70.1788 50.5,70.5C 50.2852,68.8212 50.9519,67.8212 52.5,67.5 Z"/></g>
<g><path style="opacity:0.682" fill="#b7fcfd" d="M 202.5,67.5 C 204.048,67.8212 204.715,68.8212 204.5,70.5C 202.952,70.1788 202.285,69.1788 202.5,67.5 Z"/></g>
<g><path style="opacity:0.812" fill="#b1fcfd" d="M 50.5,72.5 C 50.5,73.8333 49.8333,74.5 48.5,74.5C 48.5,73.1667 49.1667,72.5 50.5,72.5 Z"/></g>
<g><path style="opacity:0.812" fill="#b1fcfd" d="M 204.5,72.5 C 205.833,72.5 206.5,73.1667 206.5,74.5C 206.5,73.1667 205.833,72.5 204.5,72.5 Z"/></g>
<g><path style="opacity:0.263" fill="#c1fcfd" d="M 48.5,74.5 C 48.1788,76.0481 47.1788,76.7148 45.5,76.5C 45.8212,74.9519 46.8212,74.2852 48.5,74.5 Z"/></g>
<g><path style="opacity:0.263" fill="#c1fcfd" d="M 206.5,74.5 C 208.179,74.2852 209.179,74.9519 209.5,76.5C 207.821,76.7148 206.821,76.0481 206.5,74.5 Z"/></g>
<g><path style="opacity:0.682" fill="#b7fcfd" d="M 45.5,78.5 C 45.7148,80.1788 45.0481,81.1788 43.5,81.5C 43.2852,79.8212 43.9519,78.8212 45.5,78.5 Z"/></g>
<g><path style="opacity:0.682" fill="#b7fcfd" d="M 92.5,78.5 C 92.5,79.5 92.5,80.5 92.5,81.5C 91.5,81.5 90.5,81.5 89.5,81.5C 89.5,80.5 89.5,79.5 89.5,78.5C 90.5,78.5 91.5,78.5 92.5,78.5 Z"/></g>
<g><path style="opacity:0.682" fill="#b7fcfd" d="M 162.5,78.5 C 163.5,78.5 164.5,78.5 165.5,78.5C 165.5,79.5 165.5,80.5 165.5,81.5C 164.5,81.5 163.5,81.5 162.5,81.5C 162.5,80.5 162.5,79.5 162.5,78.5 Z"/></g>
<g><path style="opacity:0.682" fill="#b7fcfd" d="M 209.5,78.5 C 211.048,78.8212 211.715,79.8212 211.5,81.5C 209.952,81.1788 209.285,80.1788 209.5,78.5 Z"/></g>
<g><path style="opacity:0.682" fill="#b7fcfd" d="M 89.5,81.5 C 89.5,82.8333 88.8333,83.5 87.5,83.5C 87.5,82.1667 88.1667,81.5 89.5,81.5 Z"/></g>
<g><path style="opacity:0.753" fill="#b8fcfd" d="M 136.5,83.5 C 130.5,83.5 124.5,83.5 118.5,83.5C 121.087,82.1836 124.087,81.517 127.5,81.5C 130.913,81.517 133.913,82.1836 136.5,83.5 Z"/></g>
<g><path style="opacity:0.682" fill="#b7fcfd" d="M 165.5,81.5 C 166.833,81.5 167.5,82.1667 167.5,83.5C 166.167,83.5 165.5,82.8333 165.5,81.5 Z"/></g>
<g><path style="opacity:0.812" fill="#b1fcfd" d="M 43.5,83.5 C 43.5,84.8333 42.8333,85.5 41.5,85.5C 41.5,84.1667 42.1667,83.5 43.5,83.5 Z"/></g>
<g><path style="opacity:0.812" fill="#b1fcfd" d="M 87.5,83.5 C 87.5,84.8333 86.8333,85.5 85.5,85.5C 85.5,84.1667 86.1667,83.5 87.5,83.5 Z"/></g>
<g><path style="opacity:0.812" fill="#b6fcfd" d="M 116.5,83.5 C 115.817,85.1765 114.483,85.8432 112.5,85.5C 113.183,83.8235 114.517,83.1568 116.5,83.5 Z"/></g>
<g><path style="opacity:1" fill="#8ffbfd" d="M 116.5,83.5 C 117.167,83.5 117.833,83.5 118.5,83.5C 124.5,83.5 130.5,83.5 136.5,83.5C 137.167,83.5 137.833,83.5 138.5,83.5C 139.183,85.1765 140.517,85.8432 142.5,85.5C 143.5,85.5 144.5,85.5 145.5,85.5C 145.5,86.8333 146.167,87.5 147.5,87.5C 147.5,88.8333 148.167,89.5 149.5,89.5C 149.285,91.1788 149.952,92.1788 151.5,92.5C 152.833,92.5 153.5,93.1667 153.5,94.5C 153.821,96.0481 154.821,96.7148 156.5,96.5C 156.5,97.8333 157.167,98.5 158.5,98.5C 158.5,99.5 158.5,100.5 158.5,101.5C 158.5,102.833 159.167,103.5 160.5,103.5C 160.5,104.167 160.5,104.833 160.5,105.5C 160.157,107.483 160.824,108.817 162.5,109.5C 162.5,114.833 162.5,120.167 162.5,125.5C 160.824,126.183 160.157,127.517 160.5,129.5C 160.5,130.167 160.5,130.833 160.5,131.5C 158.744,132.552 158.077,134.219 158.5,136.5C 157.167,136.5 156.5,137.167 156.5,138.5C 155.5,139.833 154.5,141.167 153.5,142.5C 151.952,142.821 151.285,143.821 151.5,145.5C 150.167,146.167 148.833,146.833 147.5,147.5C 146.167,147.5 145.5,148.167 145.5,149.5C 144.5,149.5 143.5,149.5 142.5,149.5C 141.167,149.5 140.5,150.167 140.5,151.5C 139.833,151.5 139.167,151.5 138.5,151.5C 136.167,151.5 133.833,151.5 131.5,151.5C 128.833,151.5 126.167,151.5 123.5,151.5C 121.167,151.5 118.833,151.5 116.5,151.5C 115.833,151.5 115.167,151.5 114.5,151.5C 114.5,150.167 113.833,149.5 112.5,149.5C 111.5,149.5 110.5,149.5 109.5,149.5C 109.5,148.167 108.833,147.5 107.5,147.5C 106.167,146.833 104.833,146.167 103.5,145.5C 103.715,143.821 103.048,142.821 101.5,142.5C 100.5,141.167 99.5,139.833 98.5,138.5C 98.5,137.167 97.8333,136.5 96.5,136.5C 96.9227,134.219 96.256,132.552 94.5,131.5C 94.5,130.833 94.5,130.167 94.5,129.5C 94.8432,127.517 94.1765,126.183 92.5,125.5C 92.5,120.167 92.5,114.833 92.5,109.5C 94.1765,108.817 94.8432,107.483 94.5,105.5C 94.5,104.833 94.5,104.167 94.5,103.5C 95.8333,103.5 96.5,102.833 96.5,101.5C 96.5,100.5 96.5,99.5 96.5,98.5C 97.8333,98.5 98.5,97.8333 98.5,96.5C 100.179,96.7148 101.179,96.0481 101.5,94.5C 101.5,93.1667 102.167,92.5 103.5,92.5C 105.048,92.1788 105.715,91.1788 105.5,89.5C 106.833,89.5 107.5,88.8333 107.5,87.5C 108.833,87.5 109.5,86.8333 109.5,85.5C 110.5,85.5 111.5,85.5 112.5,85.5C 114.483,85.8432 115.817,85.1765 116.5,83.5 Z"/></g>
<g><path style="opacity:0.263" fill="#bcfcfd" d="M 138.5,83.5 C 140.483,83.1568 141.817,83.8235 142.5,85.5C 140.517,85.8432 139.183,85.1765 138.5,83.5 Z"/></g>
<g><path style="opacity:0.812" fill="#b1fcfd" d="M 167.5,83.5 C 168.833,83.5 169.5,84.1667 169.5,85.5C 168.167,85.5 167.5,84.8333 167.5,83.5 Z"/></g>
<g><path style="opacity:0.812" fill="#b1fcfd" d="M 211.5,83.5 C 212.833,83.5 213.5,84.1667 213.5,85.5C 213.5,84.1667 212.833,83.5 211.5,83.5 Z"/></g>
<g><path style="opacity:0.486" fill="#bcfcfd" d="M 41.5,85.5 C 41.5,86.8333 40.8333,87.5 39.5,87.5C 39.5,86.1667 40.1667,85.5 41.5,85.5 Z"/></g>
<g><path style="opacity:0.263" fill="#c1fcfd" d="M 109.5,85.5 C 109.5,86.8333 108.833,87.5 107.5,87.5C 107.5,86.1667 108.167,85.5 109.5,85.5 Z"/></g>
<g><path style="opacity:0.263" fill="#c1fcfd" d="M 145.5,85.5 C 146.833,85.5 147.5,86.1667 147.5,87.5C 147.5,86.1667 146.833,85.5 145.5,85.5 Z"/></g>
<g><path style="opacity:0.486" fill="#bcfcfd" d="M 213.5,85.5 C 214.833,85.5 215.5,86.1667 215.5,87.5C 215.5,86.1667 214.833,85.5 213.5,85.5 Z"/></g>
<g><path style="opacity:0.263" fill="#c1fcfd" d="M 85.5,87.5 C 85.5,88.8333 84.8333,89.5 83.5,89.5C 83.5,88.1667 84.1667,87.5 85.5,87.5 Z"/></g>
<g><path style="opacity:0.812" fill="#b1fcfd" d="M 107.5,87.5 C 107.5,88.8333 106.833,89.5 105.5,89.5C 105.5,88.1667 106.167,87.5 107.5,87.5 Z"/></g>
<g><path style="opacity:0.812" fill="#b1fcfd" d="M 147.5,87.5 C 148.833,87.5 149.5,88.1667 149.5,89.5C 149.5,88.1667 148.833,87.5 147.5,87.5 Z"/></g>
<g><path style="opacity:0.263" fill="#c1fcfd" d="M 169.5,87.5 C 170.833,87.5 171.5,88.1667 171.5,89.5C 170.167,89.5 169.5,88.8333 169.5,87.5 Z"/></g>
<g><path style="opacity:0.753" fill="#b4fcfd" d="M 39.5,89.5 C 39.7148,91.1788 39.0481,92.1788 37.5,92.5C 37.2852,90.8212 37.9519,89.8212 39.5,89.5 Z"/></g>
<g><path style="opacity:0.753" fill="#b4fcfd" d="M 83.5,89.5 C 83.7148,91.1788 83.0481,92.1788 81.5,92.5C 81.2852,90.8212 81.9519,89.8212 83.5,89.5 Z"/></g>
<g><path style="opacity:0.812" fill="#b1fcfd" d="M 105.5,89.5 C 105.715,91.1788 105.048,92.1788 103.5,92.5C 103.285,90.8212 103.952,89.8212 105.5,89.5 Z"/></g>
<g><path style="opacity:0.812" fill="#b1fcfd" d="M 149.5,89.5 C 151.048,89.8212 151.715,90.8212 151.5,92.5C 149.952,92.1788 149.285,91.1788 149.5,89.5 Z"/></g>
<g><path style="opacity:0.753" fill="#b4fcfd" d="M 171.5,89.5 C 173.048,89.8212 173.715,90.8212 173.5,92.5C 171.952,92.1788 171.285,91.1788 171.5,89.5 Z"/></g>
<g><path style="opacity:0.753" fill="#b4fcfd" d="M 215.5,89.5 C 217.048,89.8212 217.715,90.8212 217.5,92.5C 215.952,92.1788 215.285,91.1788 215.5,89.5 Z"/></g>
<g><path style="opacity:0.263" fill="#c1fcfd" d="M 37.5,92.5 C 37.1788,94.0481 36.1788,94.7148 34.5,94.5C 34.8212,92.9519 35.8212,92.2852 37.5,92.5 Z"/></g>
<g><path style="opacity:0.263" fill="#c1fcfd" d="M 217.5,92.5 C 219.179,92.2852 220.179,92.9519 220.5,94.5C 218.821,94.7148 217.821,94.0481 217.5,92.5 Z"/></g>
<g><path style="opacity:0.682" fill="#b7fcfd" d="M 81.5,94.5 C 81.1788,96.0481 80.1788,96.7148 78.5,96.5C 78.8212,94.9519 79.8212,94.2852 81.5,94.5 Z"/></g>
<g><path style="opacity:0.812" fill="#b1fcfd" d="M 101.5,94.5 C 101.179,96.0481 100.179,96.7148 98.5,96.5C 98.8212,94.9519 99.8212,94.2852 101.5,94.5 Z"/></g>
<g><path style="opacity:0.812" fill="#b1fcfd" d="M 153.5,94.5 C 155.179,94.2852 156.179,94.9519 156.5,96.5C 154.821,96.7148 153.821,96.0481 153.5,94.5 Z"/></g>
<g><path style="opacity:0.682" fill="#b7fcfd" d="M 173.5,94.5 C 175.179,94.2852 176.179,94.9519 176.5,96.5C 174.821,96.7148 173.821,96.0481 173.5,94.5 Z"/></g>
<g><path style="opacity:0.486" fill="#bcfcfd" d="M 34.5,96.5 C 34.5,97.8333 33.8333,98.5 32.5,98.5C 32.5,97.1667 33.1667,96.5 34.5,96.5 Z"/></g>
<g><path style="opacity:0.486" fill="#bcfcfd" d="M 98.5,96.5 C 98.5,97.8333 97.8333,98.5 96.5,98.5C 96.5,97.1667 97.1667,96.5 98.5,96.5 Z"/></g>
<g><path style="opacity:0.486" fill="#bcfcfd" d="M 156.5,96.5 C 157.833,96.5 158.5,97.1667 158.5,98.5C 158.5,97.1667 157.833,96.5 156.5,96.5 Z"/></g>
<g><path style="opacity:0.486" fill="#bcfcfd" d="M 220.5,96.5 C 221.833,96.5 222.5,97.1667 222.5,98.5C 222.5,97.1667 221.833,96.5 220.5,96.5 Z"/></g>
<g><path style="opacity:0.753" fill="#b4fcfd" d="M 32.5,101.5 C 32.5,102.833 31.8333,103.5 30.5,103.5C 30.5,102.167 31.1667,101.5 32.5,101.5 Z"/></g>
<g><path style="opacity:0.263" fill="#bbfcfd" d="M 78.5,98.5 C 78.9227,100.781 78.256,102.448 76.5,103.5C 76.0773,101.219 76.744,99.5521 78.5,98.5 Z"/></g>
<g><path style="opacity:0.812" fill="#b1fcfd" d="M 96.5,101.5 C 96.5,102.833 95.8333,103.5 94.5,103.5C 94.5,102.167 95.1667,101.5 96.5,101.5 Z"/></g>
<g><path style="opacity:0.812" fill="#b1fcfd" d="M 158.5,101.5 C 159.833,101.5 160.5,102.167 160.5,103.5C 160.5,102.167 159.833,101.5 158.5,101.5 Z"/></g>
<g><path style="opacity:0.486" fill="#b8fcfd" d="M 176.5,98.5 C 178.256,99.5521 178.923,101.219 178.5,103.5C 176.744,102.448 176.077,100.781 176.5,98.5 Z"/></g>
<g><path style="opacity:0.753" fill="#b4fcfd" d="M 222.5,101.5 C 223.833,101.5 224.5,102.167 224.5,103.5C 224.5,102.167 223.833,101.5 222.5,101.5 Z"/></g>
<g><path style="opacity:0.263" fill="#c1fcfd" d="M 30.5,103.5 C 30.5,104.833 29.8333,105.5 28.5,105.5C 28.5,104.167 29.1667,103.5 30.5,103.5 Z"/></g>
<g><path style="opacity:0.263" fill="#c1fcfd" d="M 224.5,103.5 C 225.833,103.5 226.5,104.167 226.5,105.5C 226.5,104.167 225.833,103.5 224.5,103.5 Z"/></g>
<g><path style="opacity:0.486" fill="#bcfcfd" d="M 28.5,107.5 C 28.1788,109.048 27.1788,109.715 25.5,109.5C 25.8212,107.952 26.8212,107.285 28.5,107.5 Z"/></g>
<g><path style="opacity:0.812" fill="#b5fcfd" d="M 94.5,105.5 C 94.8432,107.483 94.1765,108.817 92.5,109.5C 92.1568,107.517 92.8235,106.183 94.5,105.5 Z"/></g>
<g><path style="opacity:0.812" fill="#b5fcfd" d="M 160.5,105.5 C 162.176,106.183 162.843,107.517 162.5,109.5C 160.824,108.817 160.157,107.483 160.5,105.5 Z"/></g>
<g><path style="opacity:0.486" fill="#bcfcfd" d="M 226.5,107.5 C 228.179,107.285 229.179,107.952 229.5,109.5C 227.821,109.715 226.821,109.048 226.5,107.5 Z"/></g>
<g><path style="opacity:0.446" fill="#bbfbfd" d="M 76.5,105.5 C 76.5,112.833 76.5,120.167 76.5,127.5C 75.1778,124.232 74.5112,120.565 74.5,116.5C 74.5112,112.435 75.1778,108.768 76.5,105.5 Z"/></g>
<g><path style="opacity:0.446" fill="#bbfbfd" d="M 178.5,105.5 C 179.822,108.768 180.489,112.435 180.5,116.5C 180.489,120.565 179.822,124.232 178.5,127.5C 178.5,120.167 178.5,112.833 178.5,105.5 Z"/></g>
<g><path style="opacity:0.812" fill="#b1fcfd" d="M 25.5,112.5 C 25.5,113.833 24.8333,114.5 23.5,114.5C 23.5,113.167 24.1667,112.5 25.5,112.5 Z"/></g>
<g><path style="opacity:0.812" fill="#b1fcfd" d="M 229.5,112.5 C 230.833,112.5 231.5,113.167 231.5,114.5C 231.5,113.167 230.833,112.5 229.5,112.5 Z"/></g>
<g><path style="opacity:0.263" fill="#c1fcfd" d="M 23.5,114.5 C 23.5,115.833 22.8333,116.5 21.5,116.5C 21.5,115.167 22.1667,114.5 23.5,114.5 Z"/></g>
<g><path style="opacity:0.263" fill="#c1fcfd" d="M 231.5,114.5 C 232.833,114.5 233.5,115.167 233.5,116.5C 233.5,115.167 232.833,114.5 231.5,114.5 Z"/></g>
<g><path style="opacity:0.682" fill="#b2fbfe" d="M 92.5,125.5 C 94.1765,126.183 94.8432,127.517 94.5,129.5C 92.8235,128.817 92.1568,127.483 92.5,125.5 Z"/></g>
<g><path style="opacity:0.682" fill="#b2fbfe" d="M 162.5,125.5 C 162.843,127.483 162.176,128.817 160.5,129.5C 160.157,127.517 160.824,126.183 162.5,125.5 Z"/></g>
<g><path style="opacity:0.812" fill="#b7fcfd" d="M 76.5,131.5 C 78.256,132.552 78.9227,134.219 78.5,136.5C 76.744,135.448 76.0773,133.781 76.5,131.5 Z"/></g>
<g><path style="opacity:0.263" fill="#bbfcfd" d="M 94.5,131.5 C 96.256,132.552 96.9227,134.219 96.5,136.5C 94.744,135.448 94.0773,133.781 94.5,131.5 Z"/></g>
<g><path style="opacity:0.263" fill="#bbfcfd" d="M 160.5,131.5 C 160.923,133.781 160.256,135.448 158.5,136.5C 158.077,134.219 158.744,132.552 160.5,131.5 Z"/></g>
<g><path style="opacity:0.812" fill="#b7fcfd" d="M 178.5,131.5 C 178.923,133.781 178.256,135.448 176.5,136.5C 176.077,134.219 176.744,132.552 178.5,131.5 Z"/></g>
<g><path style="opacity:0.812" fill="#b1fcfd" d="M 96.5,136.5 C 97.8333,136.5 98.5,137.167 98.5,138.5C 97.1667,138.5 96.5,137.833 96.5,136.5 Z"/></g>
<g><path style="opacity:0.812" fill="#b1fcfd" d="M 158.5,136.5 C 158.5,137.833 157.833,138.5 156.5,138.5C 156.5,137.167 157.167,136.5 158.5,136.5 Z"/></g>
<g><path style="opacity:0.922" fill="#aefbfe" d="M 78.5,138.5 C 79.5,138.5 80.5,138.5 81.5,138.5C 81.5,139.833 81.5,141.167 81.5,142.5C 80.5,142.5 79.5,142.5 78.5,142.5C 78.5,141.167 78.5,139.833 78.5,138.5 Z"/></g>
<g><path style="opacity:0.922" fill="#acfbfe" d="M 176.5,138.5 C 176.5,139.833 176.5,141.167 176.5,142.5C 175.5,142.5 174.5,142.5 173.5,142.5C 173.5,141.167 173.5,139.833 173.5,138.5C 174.5,138.5 175.5,138.5 176.5,138.5 Z"/></g>
<g><path style="opacity:0.682" fill="#b7fcfd" d="M 81.5,142.5 C 83.0481,142.821 83.7148,143.821 83.5,145.5C 81.9519,145.179 81.2852,144.179 81.5,142.5 Z"/></g>
<g><path style="opacity:0.122" fill="#c4fcfd" d="M 101.5,142.5 C 103.048,142.821 103.715,143.821 103.5,145.5C 101.952,145.179 101.285,144.179 101.5,142.5 Z"/></g>
<g><path style="opacity:0.122" fill="#c4fcfd" d="M 153.5,142.5 C 153.715,144.179 153.048,145.179 151.5,145.5C 151.285,143.821 151.952,142.821 153.5,142.5 Z"/></g>
<g><path style="opacity:0.682" fill="#b7fcfd" d="M 173.5,142.5 C 173.715,144.179 173.048,145.179 171.5,145.5C 171.285,143.821 171.952,142.821 173.5,142.5 Z"/></g>
<g><path style="opacity:0.682" fill="#b7fcfd" d="M 107.5,147.5 C 108.833,147.5 109.5,148.167 109.5,149.5C 108.167,149.5 107.5,148.833 107.5,147.5 Z"/></g>
<g><path style="opacity:0.682" fill="#b7fcfd" d="M 147.5,147.5 C 147.5,148.833 146.833,149.5 145.5,149.5C 145.5,148.167 146.167,147.5 147.5,147.5 Z"/></g>
<g><path style="opacity:0.682" fill="#b7fcfd" d="M 85.5,149.5 C 86.8333,149.5 87.5,150.167 87.5,151.5C 87.5,150.167 86.8333,149.5 85.5,149.5 Z"/></g>
<g><path style="opacity:0.682" fill="#b7fcfd" d="M 112.5,149.5 C 113.833,149.5 114.5,150.167 114.5,151.5C 113.167,151.5 112.5,150.833 112.5,149.5 Z"/></g>
<g><path style="opacity:0.682" fill="#b7fcfd" d="M 142.5,149.5 C 142.5,150.833 141.833,151.5 140.5,151.5C 140.5,150.167 141.167,149.5 142.5,149.5 Z"/></g>
<g><path style="opacity:0.682" fill="#b7fcfd" d="M 169.5,149.5 C 169.5,150.833 168.833,151.5 167.5,151.5C 167.5,150.167 168.167,149.5 169.5,149.5 Z"/></g>
<g><path style="opacity:0.486" fill="#bcfcfd" d="M 87.5,151.5 C 88.8333,151.5 89.5,152.167 89.5,153.5C 89.5,152.167 88.8333,151.5 87.5,151.5 Z"/></g>
<g><path style="opacity:0.612" fill="#bafcfd" d="M 116.5,151.5 C 118.833,151.5 121.167,151.5 123.5,151.5C 123.5,152.167 123.5,152.833 123.5,153.5C 120.612,154.01 118.279,153.344 116.5,151.5 Z"/></g>
<g><path style="opacity:0.925" fill="#a6fbfd" d="M 123.5,151.5 C 126.167,151.5 128.833,151.5 131.5,151.5C 131.5,152.167 131.5,152.833 131.5,153.5C 128.833,153.5 126.167,153.5 123.5,153.5C 123.5,152.833 123.5,152.167 123.5,151.5 Z"/></g>
<g><path style="opacity:0.612" fill="#bafcfd" d="M 131.5,151.5 C 133.833,151.5 136.167,151.5 138.5,151.5C 136.721,153.344 134.388,154.01 131.5,153.5C 131.5,152.833 131.5,152.167 131.5,151.5 Z"/></g>
<g><path style="opacity:0.486" fill="#bcfcfd" d="M 167.5,151.5 C 167.5,152.833 166.833,153.5 165.5,153.5C 165.5,152.167 166.167,151.5 167.5,151.5 Z"/></g>
<g><path style="opacity:0.341" fill="#c0fcfd" d="M 89.5,153.5 C 90.5,153.5 91.5,153.5 92.5,153.5C 92.5,154.5 92.5,155.5 92.5,156.5C 92.5,155.5 92.5,154.5 92.5,153.5C 91.5,153.5 90.5,153.5 89.5,153.5 Z"/></g>
<g><path style="opacity:0.341" fill="#c0fcfd" d="M 165.5,153.5 C 165.5,154.5 165.5,155.5 165.5,156.5C 164.5,156.5 163.5,156.5 162.5,156.5C 162.5,155.5 162.5,154.5 162.5,153.5C 163.5,153.5 164.5,153.5 165.5,153.5 Z"/></g>
<g><path style="opacity:0.753" fill="#b4fcfd" d="M 21.5,251.5 C 45.1667,251.5 68.8333,251.5 92.5,251.5C 81.0194,252.832 69.1861,253.499 57,253.5C 44.8139,253.499 32.9806,252.832 21.5,251.5 Z"/></g>
<g><path style="opacity:0.753" fill="#b4fcfd" d="M 162.5,251.5 C 186.167,251.5 209.833,251.5 233.5,251.5C 222.019,252.832 210.186,253.499 198,253.5C 185.814,253.499 173.981,252.832 162.5,251.5 Z"/></g>
</svg>
