<?xml version="1.0" encoding="UTF-8" standalone="no"?>
<!-- Created with Inkscape (http://www.inkscape.org/) -->

<svg
   version="1.1"
   id="svg1"
   width="256"
   height="256"
   viewBox="0 0 256 256"
   xml:space="preserve"
   xmlns="http://www.w3.org/2000/svg"
   xmlns:svg="http://www.w3.org/2000/svg"><defs
     id="defs1" /><g
     id="g1"><path
       style="fill:#ffffff;fill-opacity:1;stroke-width:1.57349"
       d="M 14.771334,192.43128 14.463024,62.860548 125.10452,0.04338094 235.9331,62.763802 235.81538,192.51109 125.12728,256.01753 Z"
       id="path48-0" /><path
       style="fill:#000000;stroke:#000000;stroke-width:0.108168"
       d="m -513.0114,143.8547 6.1028,6.9806 8.6526,2.3617 -14.73639,21.70692 z"
       id="path15"
       transform="matrix(3.5285294,0,0,3.5285294,1939.0354,-451.18318)" /><path
       style="display:inline;fill:#000000;stroke:#000000;stroke-width:0.11269"
       d="M -506.44692,180.44415 V 169.8181 l 4.65222,-6.95507 4.48366,4.39355 z"
       id="path16"
       transform="matrix(3.5285294,0,0,3.5285294,1939.0354,-451.18318)" /><path
       style="fill:#000000;stroke:#000000;stroke-width:0.108168"
       d="m -515.54146,143.86717 -6.1028,6.9806 -8.6526,2.3617 14.73639,21.70692 z"
       id="path15-9"
       transform="matrix(3.5285294,0,0,3.5285294,1939.0354,-451.18318)" /><path
       style="display:inline;fill:#000000;stroke:#000000;stroke-width:0.11269"
       d="m -522.10594,180.45662 v -10.62605 l -4.65222,-6.95507 -4.48366,4.39355 z"
       id="path16-1"
       transform="matrix(3.5285294,0,0,3.5285294,1939.0354,-451.18318)" /></g></svg>
