<?xml version="1.0" encoding="UTF-8" standalone="no"?>
<!-- Created with Inkscape (http://www.inkscape.org/) -->

<svg
   width="53.251347mm"
   height="61.489361mm"
   viewBox="0 0 53.251347 61.489361"
   version="1.1"
   id="svg1"
   xml:space="preserve"
   xmlns:inkscape="http://www.inkscape.org/namespaces/inkscape"
   xmlns:sodipodi="http://sodipodi.sourceforge.net/DTD/sodipodi-0.dtd"
   xmlns="http://www.w3.org/2000/svg"
   xmlns:svg="http://www.w3.org/2000/svg"><sodipodi:namedview
     id="namedview1"
     pagecolor="#ffffff"
     bordercolor="#000000"
     borderopacity="0.25"
     inkscape:showpageshadow="2"
     inkscape:pageopacity="0.0"
     inkscape:pagecheckerboard="true"
     inkscape:deskcolor="#d1d1d1"
     inkscape:document-units="mm"
     showgrid="true"><inkscape:grid
       id="grid1"
       units="mm"
       originx="-5.8783493"
       originy="-4.2112904"
       spacingx="0.99999998"
       spacingy="1"
       empcolor="#0099e5"
       empopacity="0.30196078"
       color="#0099e5"
       opacity="0.14901961"
       empspacing="5"
       dotted="false"
       gridanglex="30"
       gridanglez="30"
       visible="true" /></sodipodi:namedview><defs
     id="defs1" /><g
     inkscape:label="Layer 1"
     inkscape:groupmode="layer"
     id="layer1"
     style="display:inline"
     transform="translate(-5.8783494,-4.2112902)"><path
       sodipodi:type="star"
       style="display:inline;fill:#f9f9f9;stroke:#ffffff;stroke-width:0"
       id="path1"
       inkscape:flatsided="true"
       sodipodi:sides="6"
       sodipodi:cx="28.228832"
       sodipodi:cy="10.310753"
       sodipodi:r1="30.744678"
       sodipodi:r2="26.625671"
       sodipodi:arg1="1.5707963"
       sodipodi:arg2="2.0943951"
       inkscape:rounded="0"
       inkscape:randomized="0"
       d="M 28.228833,41.055431 1.60316,25.683093 l -8e-7,-30.7446787 26.6256718,-15.3723403 26.625673,15.3723389 1e-6,30.7446781 z"
       transform="translate(4.2751904,24.645216)"
       inkscape:export-filename="Eliminate Automaton Factory Strider Mission Icon.svg"
       inkscape:export-xdpi="96"
       inkscape:export-ydpi="96" /><path
       id="path2"
       style="display:inline;fill:#000000;stroke:#ffffff;stroke-width:0"
       d="m 25.179398,23.482208 -1.760156,1.603083 -2.546097,0.345715 1.351338,9.588045 2.515267,1.005703 2.996595,0.0057 -3.262848,-3.270066 c -1.080614,-1.080614 -0.02058,-2.10712 -0.02058,-2.10712 0,0 0.947037,-1.115166 1.92153,-2.152523 1.173311,-1.249 2.227819,-0.14302 2.227819,-0.14302 l 5.77721,5.138596 -2.175016,2.607955 9.401531,0.0046 -3.577853,-3.253232 c -0.894374,-0.813226 -0.898757,-1.413897 -0.112182,-2.200472 0,0 0.996045,-1.195166 2.002462,-2.201583 0.917154,-0.917154 1.479593,-0.514352 2.224167,0.128783 l 5.177477,4.47211 1.728947,-1.579122 0.02138,-7.270142 -3.332097,-0.06305 -0.40876,0.40876 h -11.22257 l -1.060635,-1.037313 z"
       sodipodi:nodetypes="ccccccccsccccsssscccccccc" /><path
       style="display:inline;fill:#000000;stroke:#ffffff;stroke-width:0"
       d="m 17.635161,21.72174 0.03143,-0.754445 9.27339,-0.754446 c 0,0 1.068553,-0.72301 2.137595,-0.72301 1.069042,0 2.326207,0.754446 2.326207,0.754446 l 0.03144,1.163103 1.359572,1.563902 -7.292972,-5e-6 0.715152,-1.24955 z"
       id="path3"
       sodipodi:nodetypes="ccczcccccc" /><path
       style="display:inline;fill:#000000;stroke:#ffffff;stroke-width:0"
       d="m 20.684377,27.56869 c 0,0 -4.292061,0.157019 -6.852879,2.011855 -0.664262,1.427476 0.342725,1.632256 0.581851,2.403133 l 0.392642,2.312151 5.407186,0.02953 1.142454,-1.018621 -0.271475,-2.224601 z"
       id="path4"
       sodipodi:nodetypes="cccccccc" /><path
       style="display:inline;fill:#000000;stroke:#ffffff;stroke-width:0;stroke-dasharray:none"
       d="m 33.352774,33.57282 -4.903896,-4.338061 c 0,0 -0.838045,-1.099462 -1.634633,-0.251487 -0.974494,1.03736 -1.791806,1.917548 -1.791806,1.917548 0,0 -0.860575,0.687615 0.03143,1.57962 l 5.092508,4.61312"
       id="path5"
       sodipodi:nodetypes="ccsccc" /><path
       style="display:inline;fill:#000000;stroke:#ffffff;stroke-width:0"
       d="m 46.800751,33.57282 -4.903896,-4.338061 c -0.732942,-0.648372 -1.141275,-0.744845 -1.634633,-0.251487 -1.006418,1.006418 -1.791806,1.917548 -1.791806,1.917548 -0.671728,0.671728 -0.675893,0.872297 0.03143,1.57962 l 5.092508,4.61312"
       id="path6"
       sodipodi:nodetypes="cssscc" /><path
       style="display:inline;fill:#000000;stroke:#ffffff;stroke-width:0;stroke-dasharray:none"
       d="m 30.75252,37.809929 0.87801,-1.066945 0.80021,-0.01112 c 0,0 0.866894,0.589021 0.866894,1.000264 0,1.006123 -0.13859,0.975201 -0.73385,1.651059 z"
       id="path8"
       sodipodi:nodetypes="cccccc" /><path
       style="display:inline;fill:#000000;stroke:#ffffff;stroke-width:0;stroke-dasharray:none"
       d="m 44.767311,37.054175 1.299554,-1.637247 1.043601,0.02032 c 0.341069,0.09139 1.246678,0.919745 1.246678,1.850324 0,1.006123 -0.193696,1.528996 -0.851827,2.204853 z"
       id="path9"
       sodipodi:nodetypes="cccccc" /><path
       style="fill:#000000;stroke:#ffffff;stroke-width:0;stroke-dasharray:none"
       d="m 29.140985,37.320913 3.111931,2.533997 -4.934629,6.935157 -4.356701,-0.02222 0.02223,-2.200579 z"
       id="path10"
       sodipodi:nodetypes="cccccc" /><path
       style="fill:#000000;stroke:#ffffff;stroke-width:0;stroke-dasharray:none"
       d="M 44.122698,37.409825 47.234629,39.943822 42.3,46.878979 38.210036,46.856759 38.198924,44.344987 Z"
       id="path11"
       sodipodi:nodetypes="cccccc" /><path
       style="fill:#000000;stroke:#ffffff;stroke-width:0;stroke-dasharray:none"
       d="m 21.005517,48.923961 8.868997,-0.04446 -0.01168,-0.600159 c 0,0 -1.969514,-0.848596 -4.763546,-0.848596 -2.133894,0 -4.093893,0.802792 -4.093893,0.802792 z"
       id="path12"
       sodipodi:nodetypes="cccscc" /><path
       style="fill:#000000;stroke:#ffffff;stroke-width:0;stroke-dasharray:none"
       d="m 36.18873,48.861091 8.868997,-0.04446 -0.01168,-0.600159 c 0,0 -1.969514,-0.848596 -4.763546,-0.848596 -2.133894,0 -4.093893,0.802792 -4.093893,0.802792 z"
       id="path13"
       sodipodi:nodetypes="cccscc" /></g></svg>
