<?xml version="1.0" encoding="UTF-8"?>
<!DOCTYPE svg PUBLIC "-//W3C//DTD SVG 1.1//EN" "http://www.w3.org/Graphics/SVG/1.1/DTD/svg11.dtd">
<svg xmlns="http://www.w3.org/2000/svg" version="1.1" width="256px" height="256px" style="shape-rendering:geometricPrecision; text-rendering:geometricPrecision; image-rendering:optimizeQuality; fill-rule:evenodd; clip-rule:evenodd" xmlns:xlink="http://www.w3.org/1999/xlink">
<g><path style="opacity:0.988" fill="#fdfdfd" d="M 122.5,-0.5 C 123.833,-0.5 125.167,-0.5 126.5,-0.5C 162.523,20.266 198.689,40.9327 235,61.5C 235.667,105.167 235.667,148.833 235,192.5C 198.689,213.4 162.522,234.4 126.5,255.5C 125.167,255.5 123.833,255.5 122.5,255.5C 86.4781,234.4 50.3114,213.4 14,192.5C 13.1667,148.83 13.3334,105.163 14.5,61.5C 50.5627,40.8063 86.5627,20.1397 122.5,-0.5 Z"/></g>
<g><path style="opacity:1" fill="#030303" d="M 142.5,72.5 C 145.505,74.2766 148.838,75.2766 152.5,75.5C 155.659,77.0037 158.993,78.337 162.5,79.5C 150.167,98.8333 137.833,118.167 125.5,137.5C 113.167,118.167 100.833,98.8333 88.5,79.5C 96.1518,76.6762 103.819,73.8429 111.5,71C 116.045,64.7436 120.712,58.577 125.5,52.5C 130.243,58.3211 134.743,64.3211 139,70.5C 139.816,71.8228 140.983,72.4894 142.5,72.5 Z"/></g>
<g><path style="opacity:1" fill="#999999" d="M 142.5,72.5 C 146.162,72.7234 149.495,73.7234 152.5,75.5C 148.838,75.2766 145.505,74.2766 142.5,72.5 Z"/></g>
<g><path style="opacity:1" fill="#0b0b0b" d="M 83.5,100.5 C 86.2186,101.913 89.2186,102.58 92.5,102.5C 95.5266,106.042 98.1932,109.876 100.5,114C 87.8202,114.167 75.1535,114.667 62.5,115.5C 53.5204,126.314 44.3537,136.981 35,147.5C 42.2279,130.19 50.0612,113.024 58.5,96C 66.9101,96.6811 75.2434,98.1811 83.5,100.5 Z"/></g>
<g><path style="opacity:1" fill="#0b0b0b" d="M 157.5,103.5 C 162.673,102.406 167.673,101.072 172.5,99.5C 178.225,97.8539 184.059,96.5206 190,95.5C 191.107,95.5852 192.107,95.9186 193,96.5C 201.083,113.459 208.75,130.459 216,147.5C 206.646,136.981 197.48,126.314 188.5,115.5C 175.846,114.667 163.18,114.167 150.5,114C 152.733,110.349 155.066,106.849 157.5,103.5 Z"/></g>
<g><path style="opacity:1" fill="#7a7a7a" d="M 172.5,99.5 C 167.673,101.072 162.673,102.406 157.5,103.5C 157.611,102.883 157.944,102.383 158.5,102C 163.096,100.714 167.763,99.8806 172.5,99.5 Z"/></g>
<g><path style="opacity:1" fill="#979797" d="M 83.5,100.5 C 86.7814,100.42 89.7814,101.087 92.5,102.5C 89.2186,102.58 86.2186,101.913 83.5,100.5 Z"/></g>
<g><path style="opacity:1" fill="#090909" d="M 87.5,138.5 C 86.8333,152.833 86.1667,167.167 85.5,181.5C 79.638,162.579 73.9714,143.579 68.5,124.5C 81.1535,123.334 93.8202,123.167 106.5,124C 108.291,126.414 109.957,128.914 111.5,131.5C 103.487,134.166 95.4871,136.499 87.5,138.5 Z"/></g>
<g><path style="opacity:1" fill="#0a0a0a" d="M 165.5,181.5 C 164.833,167.167 164.167,152.833 163.5,138.5C 155.61,136.186 147.61,134.519 139.5,133.5C 140.484,130.035 142.15,126.869 144.5,124C 157.18,123.167 169.846,123.334 182.5,124.5C 177.029,143.579 171.362,162.579 165.5,181.5 Z"/></g>
<g><path style="opacity:1" fill="#393939" d="M 87.5,138.5 C 87.6666,154.17 87.4999,169.837 87,185.5C 86.5899,184.099 86.0899,182.766 85.5,181.5C 86.1667,167.167 86.8333,152.833 87.5,138.5 Z"/></g>
<g><path style="opacity:1" fill="#393939" d="M 163.5,138.5 C 164.167,152.833 164.833,167.167 165.5,181.5C 164.91,182.766 164.41,184.099 164,185.5C 163.5,169.837 163.333,154.17 163.5,138.5 Z"/></g>
</svg>
