<?xml version="1.0" encoding="UTF-8" standalone="no"?>
<!-- Created with Inkscape (http://www.inkscape.org/) -->

<svg
   version="1.1"
   id="svg1"
   width="256"
   height="256"
   viewBox="0 0 256 256"
   xml:space="preserve"
   xmlns="http://www.w3.org/2000/svg"
   xmlns:svg="http://www.w3.org/2000/svg"><defs
     id="defs1" /><g
     id="g1"><path
       style="fill:#ffffff;fill-opacity:1;stroke-width:1.57349"
       d="M 14.771334,192.43128 14.463024,62.860548 125.10452,0.04338094 235.9331,62.763802 235.81538,192.51109 125.12728,256.01753 Z"
       id="path48-0" /><path
       style="fill:#000000;stroke:#000000;stroke-width:0.513792"
       d="m 1191.1588,-243.11946 h -39.6874 l 19.9043,33.10201 z"
       id="path20"
       transform="translate(-1045.9995,377.23596)" /><path
       style="fill:#000000;stroke:#000000;stroke-width:0.382733"
       d="m 1232.9599,-279.7955 18.6356,54.20599 -25.3651,-33.64765 -17.8961,7.98669 z"
       id="path21"
       transform="translate(-1045.9995,377.23596)" /><path
       style="fill:#000000;stroke:#000000;stroke-width:0.382733"
       d="m 1193.9139,-230.24842 7.5429,-9.022 21.15,-8.1346 0.2958,59.75231 -13.0154,-43.18731 z"
       id="path22"
       transform="translate(-1045.9995,377.23596)" /><path
       style="fill:#000000;stroke:#000000;stroke-width:0.382733"
       d="m 1110.9748,-280.09835 -18.6357,54.206 25.3652,-33.64765 17.8961,7.98669 z"
       id="path21-1"
       transform="translate(-1045.9995,377.23596)" /><path
       style="fill:#000000;stroke:#000000;stroke-width:0.382733"
       d="m 1150.0208,-230.55126 -7.543,-9.02201 -21.1499,-8.13459 -0.2958,59.75231 13.0153,-43.18732 z"
       id="path22-8"
       transform="translate(-1045.9995,377.23596)" /><path
       style="opacity:1;fill:#000000;stroke:#000000;stroke-width:0.384074"
       d="m 1194.1644,-248.00037 -46.1198,0.10533 -21.2297,-32.75427 26.632,-5.82121 18.3374,-24.61604 18.9395,24.31067 25.0886,6.54785 z"
       id="path23"
       transform="translate(-1045.9995,377.23596)" /></g></svg>
