<?xml version="1.0" encoding="UTF-8" standalone="no"?>
<!-- Created with Inkscape (http://www.inkscape.org/) -->

<svg
   version="1.1"
   id="svg1"
   width="256"
   height="256"
   viewBox="0 0 256 256"
   xml:space="preserve"
   xmlns="http://www.w3.org/2000/svg"
   xmlns:svg="http://www.w3.org/2000/svg"><defs
     id="defs1" /><g
     id="g1"><path
       style="fill:#ffffff;fill-opacity:1;stroke-width:1.57349"
       d="M 14.771334,192.43128 14.463024,62.860548 125.10452,0.04338094 235.9331,62.763802 235.81538,192.51109 125.12728,256.01753 Z"
       id="path48-0"
       transform="translate(1.0458452e-5)" /><path
       style="opacity:1;fill:#000000;stroke:#000000;stroke-width:0.108168"
       d="m -646.76026,105.9954 1.98032,-2.08377 5.08381,-0.0296 2.10642,2.10641 h 7.84338 l 2.07204,-2.07204 h 5.11756 l 1.94223,1.94223 v 10.28133 h -7.00003 v 8.83104 l -2.15404,2.15404 h -8.01685 l -1.87908,-2.12988 0.0209,-8.89128 h -7.11533 z"
       id="path24"
       transform="matrix(3.5416306,0,0,3.5416306,2368.7969,-288.4468)" /><path
       style="opacity:1;fill:#000000;stroke:#000000;stroke-width:0.108168"
       d="m -626.90532,131.0708 2.08378,-2.08377 v -8.92624 h 4.07887 v 9.05924 l 1.9951,1.9951 z"
       id="path25"
       transform="matrix(3.5416306,0,0,3.5416306,2368.7969,-288.4468)" /><path
       style="opacity:1;fill:#000000;stroke:#000000;stroke-width:0.108168"
       d="m -646.6481,120.06005 h 4.0755 v 8.85115 l 2.16315,2.16315 h -8.45405 l 2.17882,-2.17882 z"
       id="path26"
       transform="matrix(3.5416306,0,0,3.5416306,2368.7969,-288.4468)" /><path
       style="opacity:1;fill:#ffffff;stroke:#000000;stroke-width:0.108168"
       d="m -639.5609,109.1398 h 11.6622 v 4.807 h -11.6831 z"
       id="path27"
       transform="matrix(3.5416306,0,0,3.5416306,2368.7969,-288.4468)" /></g></svg>
