<?xml version="1.0" encoding="UTF-8" standalone="no"?>
<svg
   width="26.591mm"
   height="31.364002mm"
   version="1.1"
   viewBox="0 0 26.591 31.364002"
   xml:space="preserve"
   id="svg2"
   xmlns="http://www.w3.org/2000/svg"
   xmlns:svg="http://www.w3.org/2000/svg"><defs
     id="defs2" /><g
     transform="translate(-94.489,-81.365)"
     id="g2"><path
       id="path1"
       style="mix-blend-mode:normal;fill:#ffffff;stroke-width:0.125"
       d="m 406.93164,307.52318 c -1.65937,0 -3.3188,0.0497 -4.12505,0.14844 -9.18899,1.126 -17.01042,4.83496 -23.47881,11.13295 -7.2639,7.072 -11.49775,16.04536 -12.52164,26.54135 l -0.082,0.84376 h -9.60363 v 41.36576 0.002 0.006 h 0.008 l 14.05096,11.00014 c 7.62332,5.94647 18.70402,14.59048 24.6214,19.20727 6.19958,4.83705 10.80901,8.34997 10.881,8.29308 0.069,-0.0543 4.99074,-3.76907 10.93764,-8.25597 5.94639,-4.48679 12.27517,-9.26397 14.06267,-10.61536 1.788,-1.3509 8.32619,-6.26077 14.50019,-10.94936 l 11.42983,-8.6798 h 0.008 v -41.37357 h -10.46302 l -0.14649,-1.44337 c -0.967,-9.53199 -5.01586,-18.32089 -11.50796,-24.98079 -6.80399,-6.97969 -14.73583,-10.9043 -24.44562,-12.0939 -0.80625,-0.0988 -2.46568,-0.14844 -4.12505,-0.14844 z m -29.62342,38.92041 h 57.89917 v 28.77576 h -12.69352 l -5.32624,-9.54114 h -20.58034 l -5.29889,9.49231 h -13.48064 z"
       transform="scale(0.26458)" /></g></svg>
