<?xml version="1.0" encoding="UTF-8" standalone="no"?>
<!-- Created with Inkscape (http://www.inkscape.org/) -->

<svg
   version="1.1"
   id="svg1"
   width="256"
   height="256"
   viewBox="0 0 256 256"
   xml:space="preserve"
   xmlns="http://www.w3.org/2000/svg"
   xmlns:svg="http://www.w3.org/2000/svg"><defs
     id="defs1" /><g
     id="g1"><path
       style="fill:#ffffff;fill-opacity:1;stroke-width:1.57349"
       d="M 14.771334,192.43128 14.463024,62.860548 125.10452,0.04338094 235.9331,62.763802 235.81538,192.51109 125.12728,256.01753 Z"
       id="path48-0" /><path
       id="path17"
       style="stroke:#ffffff;stroke-width:0.108168"
       d="m -594.06158,71.018202 c -0.0917,7.726455 -5.67841,13.23533 -11.0352,13.166999 -6.13372,-0.07824 -11.4532,-5.242681 -11.4532,-13.501399 0,-8.220341 5.79757,-18.0158 11.1188,-18.0158 5.49821,0 11.46811,10.047457 11.3696,18.3502 z"
       transform="matrix(3.5475835,0,0,3.5475835,2273.7103,-117.62361)" /><path
       style="fill:#000000;stroke:#ffffff;stroke-width:0.108168"
       d="m -594.20535,58.9959 c 0.30542,-0.216753 1.27095,-0.137934 2.41384,0.551743 1.14288,0.689677 2.46307,1.990162 3.66507,3.862134 1.202,1.871972 2.28574,4.315308 2.81777,6.364614 0.53203,2.049306 0.51233,3.704469 0.21676,5.231598 -0.29558,1.52713 -0.867,2.926134 -1.81284,4.157689 -0.94584,1.231556 -2.26603,2.29559 -3.80301,2.798059 -1.53699,0.502469 -3.29067,0.443356 -3.98033,0.246305 -0.68966,-0.197051 -0.31528,-0.532023 0.50248,-1.684767 0.81775,-1.152744 2.07883,-3.123178 2.71923,-5.556738 0.6404,-2.433561 0.6601,-5.330095 0.16747,-7.862173 -0.49263,-2.532079 -1.49756,-4.699552 -2.17737,-6.039477 -0.67982,-1.339924 -1.03449,-1.852234 -0.72907,-2.068987 z"
       id="path18"
       transform="matrix(3.5475835,0,0,3.5475835,2273.7103,-117.62361)" /><path
       style="fill:#000000;stroke:#ffffff;stroke-width:0.108168"
       d="m -594.20535,58.9959 c 0.30542,-0.216753 1.27095,-0.137934 2.41384,0.551743 1.14288,0.689677 2.46307,1.990162 3.66507,3.862134 1.202,1.871972 2.28574,4.315308 2.81777,6.364614 0.53203,2.049306 0.51233,3.704469 0.21676,5.231598 -0.29558,1.52713 -0.867,2.926134 -1.81284,4.157689 -0.94584,1.231556 -2.26603,2.29559 -3.80301,2.798059 -1.53699,0.502469 -3.29067,0.443356 -3.98033,0.246305 -0.68966,-0.197051 -0.31528,-0.532023 0.50248,-1.684767 0.81775,-1.152744 2.07883,-3.123178 2.71923,-5.556738 0.6404,-2.433561 0.6601,-5.330095 0.16747,-7.862173 -0.49263,-2.532079 -1.49756,-4.699552 -2.17737,-6.039477 -0.67982,-1.339924 -1.03449,-1.852234 -0.72907,-2.068987 z"
       id="path18-4"
       transform="matrix(-3.5475835,0,0,3.5475835,-2020.5246,-117.67867)" /></g></svg>
