<?xml version="1.0" encoding="UTF-8" standalone="no"?>
<!-- Created with Inkscape (http://www.inkscape.org/) -->

<svg
   version="1.1"
   id="svg1"
   width="256"
   height="256"
   viewBox="0 0 256 256"
   xml:space="preserve"
   xmlns="http://www.w3.org/2000/svg"
   xmlns:svg="http://www.w3.org/2000/svg"><defs
     id="defs1" /><g
     id="g1"><path
       style="fill:#ffffff;fill-opacity:1;stroke-width:1.57349"
       d="M 14.771334,192.43128 14.463024,62.860548 125.10452,0.04338094 235.9331,62.763802 235.81538,192.51109 125.12728,256.01753 Z"
       id="path48-0"
       transform="translate(-9.647576e-6)" /><path
       style="opacity:1;fill:#000000;stroke:#000000;stroke-width:0.108168"
       d="m -605.29195,18.720411 7.0015,-7.0015 h 24.035 l 6.9806,6.9806 v 21.109 h -38.05727 z"
       id="path28"
       transform="matrix(3.5475834,0,0,3.5475834,2205.4036,35.740758)" /><path
       style="fill:#ffffff;stroke:#000000;stroke-width:0.150019"
       d="m -585.33364,18.608349 c 0.95561,1.594667 2.74142,4.449602 3.68508,6.987946 0.94366,2.538344 1.04517,4.760032 0.4479,6.259152 -0.59727,1.499121 -1.76786,2.609991 -2.7175,3.177375 -0.94964,0.567394 -1.67828,0.591306 -2.46068,0.585342 -0.78241,-0.0056 -1.61855,-0.04175 -2.53834,-0.633082 -0.91978,-0.591293 -1.92314,-1.737987 -2.41886,-3.302817 -0.49572,-1.564818 -0.48378,-3.547665 0.38823,-5.996435 0.87201,-2.448767 2.60401,-5.363306 3.52378,-6.886306 0.91978,-1.522998 1.02728,-1.65439 1.08103,-1.720087 0.0538,-0.0657 0.0538,-0.06575 1.00936,1.528912 z"
       id="path8-8"
       transform="matrix(3.5475834,0,0,3.5475834,2205.4036,35.740758)" /></g></svg>
