<?xml version="1.0" encoding="UTF-8"?>
<!DOCTYPE svg PUBLIC "-//W3C//DTD SVG 1.1//EN" "http://www.w3.org/Graphics/SVG/1.1/DTD/svg11.dtd">
<svg xmlns="http://www.w3.org/2000/svg" version="1.1" width="130px" height="130px" style="shape-rendering:geometricPrecision; text-rendering:geometricPrecision; image-rendering:optimizeQuality; fill-rule:evenodd; clip-rule:evenodd" xmlns:xlink="http://www.w3.org/1999/xlink">
<g><path style="opacity:1" fill="#90fbfd" d="M 47.5,0.5 C 48.496,14.9905 48.8293,29.6572 48.5,44.5C 59.1667,44.5 69.8333,44.5 80.5,44.5C 80.3334,29.8295 80.5001,15.1629 81,0.5C 87.3333,9.16667 93.6667,17.8333 100,26.5C 100.5,38.1619 100.667,49.8286 100.5,61.5C 76.5,60.1667 52.5,60.1667 28.5,61.5C 28.3335,49.8286 28.5001,38.1619 29,26.5C 35.4218,17.98 41.5884,9.31331 47.5,0.5 Z"/></g>
<g><path style="opacity:1" fill="#8ffbfd" d="M 48.5,68.5 C 59.1667,68.5 69.8333,68.5 80.5,68.5C 80.5,76.5 80.5,84.5 80.5,92.5C 69.8333,92.5 59.1667,92.5 48.5,92.5C 48.5,84.5 48.5,76.5 48.5,68.5 Z"/></g>
<g><path style="opacity:1" fill="#8ffbfd" d="M 27.5,100.5 C 52.1689,100.333 76.8356,100.5 101.5,101C 107.711,109.921 114.044,118.755 120.5,127.5C 83.1667,128.833 45.8333,128.833 8.5,127.5C 15.089,118.646 21.4223,109.646 27.5,100.5 Z"/></g>
</svg>
